<svg width="262" height="75" viewBox="0 0 262 75" fill="none" xmlns="http://www.w3.org/2000/svg">
<path d="M259.882 66.034C259.882 70.01 256.555 73.2307 252.44 73.2307H8.90343C4.79044 73.2307 1.4519 70.01 1.4519 66.034V8.64202C1.4519 4.66782 4.79044 1.43585 8.90343 1.43585H252.438C256.555 1.43585 259.88 4.66782 259.88 8.64202L259.882 66.034Z" fill="black"/>
<path d="M251.654 1.49575C256.136 1.49575 259.782 5.01209 259.782 9.33342V65.3334C259.782 69.6547 256.136 73.1711 251.654 73.1711H9.67901C5.19763 73.1711 1.55106 69.6547 1.55106 65.3334V9.33342C1.55106 5.01209 5.19763 1.49575 9.67901 1.49575H251.654ZM251.654 8.6901e-05H9.67901C4.35798 8.6901e-05 0 4.20242 0 9.33342V65.3334C0 70.4644 4.35798 74.6667 9.67901 74.6667H251.654C256.975 74.6667 261.333 70.4644 261.333 65.3334V9.33342C261.333 4.20242 256.975 8.6901e-05 251.654 8.6901e-05Z" fill="#A6A6A6"/>
<path d="M58.322 36.9301C58.2658 30.9138 63.4305 27.9869 63.6667 27.8506C60.7417 23.7384 56.2081 23.1765 54.6149 23.1317C50.8072 22.7453 47.1137 25.3288 45.174 25.3288C43.1956 25.3288 40.2086 23.169 36.9894 23.2325C32.8468 23.2941 28.9713 25.6069 26.8458 29.1984C22.4593 36.5213 25.7308 47.2826 29.9334 53.2018C32.0357 56.1008 34.4922 59.3376 37.7076 59.2237C40.8533 59.0986 42.0283 57.2898 45.8244 57.2898C49.5857 57.2898 50.6891 59.2237 53.9683 59.1509C57.3444 59.0986 59.4699 56.2389 61.4986 53.3138C63.928 49.9912 64.9037 46.7189 64.9424 46.5509C64.863 46.5248 58.3858 44.141 58.322 36.9301Z" fill="white"/>
<path d="M52.1274 19.2378C53.8193 17.1976 54.9769 14.4218 54.6555 11.605C52.2068 11.7096 49.1443 13.2384 47.3808 15.2338C45.8205 16.9922 44.4268 19.8744 44.7868 22.5848C47.5376 22.7826 50.3619 21.2464 52.1274 19.2378Z" fill="white"/>
<path d="M103.846 58.8075H99.4499L97.0418 51.5107H88.6714L86.3775 58.8075H82.0974L90.3904 33.9659H95.5125L103.846 58.8075ZM96.3159 48.4493L94.1381 41.9627C93.9077 41.3 93.4761 39.7395 92.8392 37.2829H92.7617C92.5082 38.3395 92.0997 39.9 91.5383 41.9627L89.3993 48.4493H96.3159Z" fill="white"/>
<path d="M125.173 49.631C125.173 52.6774 124.319 55.0854 122.612 56.8531C121.082 58.4267 119.183 59.2126 116.917 59.2126C114.47 59.2126 112.712 58.3651 111.642 56.6702H111.564V66.1062H107.437V46.7918C107.437 44.8766 107.385 42.911 107.284 40.895H110.914L111.144 43.7342H111.221C112.598 41.595 114.687 40.5272 117.49 40.5272C119.681 40.5272 121.51 41.3616 122.974 43.0323C124.441 44.7048 125.173 46.9038 125.173 49.631ZM120.968 49.7766C120.968 48.0331 120.562 46.5958 119.745 45.4646C118.852 44.2848 117.654 43.695 116.152 43.695C115.134 43.695 114.208 44.0235 113.382 44.6712C112.553 45.3246 112.011 46.1776 111.758 47.2342C111.63 47.727 111.566 48.1302 111.566 48.4475V51.4342C111.566 52.7371 111.98 53.8366 112.809 54.7344C113.637 55.6323 114.714 56.0803 116.038 56.0803C117.592 56.0803 118.802 55.5016 119.667 54.348C120.535 53.1926 120.968 51.6694 120.968 49.7766Z" fill="white"/>
<path d="M146.538 49.631C146.538 52.6774 145.684 55.0854 143.975 56.8531C142.448 58.4267 140.549 59.2126 138.282 59.2126C135.835 59.2126 134.077 58.3651 133.009 56.6702H132.931V66.1062H128.804V46.7918C128.804 44.8766 128.752 42.911 128.651 40.895H132.281L132.511 43.7342H132.589C133.963 41.595 136.052 40.5272 138.857 40.5272C141.046 40.5272 142.876 41.3616 144.343 43.0323C145.805 44.7048 146.538 46.9038 146.538 49.631ZM142.334 49.7766C142.334 48.0331 141.925 46.5958 141.108 45.4646C140.216 44.2848 139.021 43.695 137.517 43.695C136.497 43.695 135.574 44.0235 134.745 44.6712C133.917 45.3246 133.377 46.1776 133.123 47.2342C132.997 47.727 132.931 48.1302 132.931 48.4475V51.4342C132.931 52.7371 133.346 53.8366 134.17 54.7344C134.999 55.6304 136.075 56.0803 137.403 56.0803C138.958 56.0803 140.167 55.5016 141.033 54.348C141.9 53.1926 142.334 51.6694 142.334 49.7766Z" fill="white"/>
<path d="M170.426 51.8411C170.426 53.9541 169.665 55.6733 168.138 57.0005C166.46 58.4509 164.123 59.1752 161.121 59.1752C158.349 59.1752 156.126 58.66 154.444 57.6277L155.4 54.3107C157.212 55.3672 159.2 55.8973 161.367 55.8973C162.921 55.8973 164.131 55.5576 165 54.8819C165.865 54.2061 166.297 53.2989 166.297 52.1677C166.297 51.1597 165.941 50.3104 165.227 49.6216C164.516 48.9328 163.329 48.2925 161.672 47.7008C157.162 46.0787 154.909 43.7024 154.909 40.5776C154.909 38.5355 155.698 36.8611 157.28 35.5581C158.856 34.2533 160.958 33.6019 163.587 33.6019C165.931 33.6019 167.879 33.9957 169.433 34.7816L168.401 38.0259C166.949 37.2643 165.308 36.8835 163.471 36.8835C162.019 36.8835 160.885 37.2288 160.071 37.9157C159.384 38.5299 159.04 39.2784 159.04 40.1651C159.04 41.1469 159.433 41.9589 160.222 42.5973C160.91 43.1872 162.158 43.8256 163.97 44.5144C166.187 45.3749 167.815 46.3811 168.862 47.5347C169.905 48.6845 170.426 50.1237 170.426 51.8411Z" fill="white"/>
<path d="M184.072 43.8815H179.522V52.5783C179.522 54.7903 180.324 55.8954 181.931 55.8954C182.668 55.8954 183.28 55.8338 183.764 55.7106L183.878 58.7327C183.065 59.0258 181.994 59.1732 180.668 59.1732C179.039 59.1732 177.765 58.6935 176.845 57.7359C175.93 56.7764 175.469 55.1674 175.469 52.9068V43.8778H172.759V40.8911H175.469V37.6114L179.522 36.4316V40.8911H184.072V43.8815Z" fill="white"/>
<path d="M204.597 49.7037C204.597 52.4571 203.78 54.7176 202.15 56.4853C200.441 58.3053 198.172 59.2125 195.344 59.2125C192.618 59.2125 190.448 58.3408 188.83 56.5973C187.211 54.8539 186.402 52.6531 186.402 50.0005C186.402 47.2248 187.235 44.9512 188.905 43.1835C190.572 41.4139 192.821 40.5291 195.65 40.5291C198.375 40.5291 200.568 41.4008 202.224 43.1461C203.807 44.8392 204.597 47.0251 204.597 49.7037ZM200.315 49.8325C200.315 48.1805 199.949 46.7637 199.208 45.5821C198.342 44.1523 197.105 43.4392 195.502 43.4392C193.843 43.4392 192.583 44.1541 191.718 45.5821C190.977 46.7656 190.611 48.2048 190.611 49.9072C190.611 51.5592 190.977 52.976 191.718 54.1557C192.61 55.5856 193.857 56.2987 195.466 56.2987C197.041 56.2987 198.278 55.5707 199.171 54.1184C199.932 52.9144 200.315 51.4826 200.315 49.8325Z" fill="white"/>
<path d="M218.012 44.395C217.604 44.3222 217.168 44.2848 216.711 44.2848C215.259 44.2848 214.137 44.8131 213.347 45.8715C212.66 46.8048 212.315 47.9846 212.315 49.4088V58.8075H208.19L208.228 46.536C208.228 44.4715 208.176 42.5918 208.074 40.8968H211.668L211.819 44.324H211.934C212.369 43.1462 213.056 42.1979 213.997 41.4867C214.917 40.8464 215.91 40.5272 216.98 40.5272C217.362 40.5272 217.706 40.5534 218.012 40.6V44.395Z" fill="white"/>
<path d="M236.47 49.0037C236.47 49.7167 236.421 50.3178 236.319 50.8087H223.937C223.986 52.5783 224.584 53.9317 225.734 54.865C226.777 55.6994 228.127 56.1175 229.784 56.1175C231.617 56.1175 233.289 55.8357 234.793 55.2701L235.44 58.0327C233.682 58.7719 231.607 59.1397 229.212 59.1397C226.332 59.1397 224.071 58.3221 222.426 56.6887C220.784 55.0554 219.961 52.8621 219.961 50.1106C219.961 47.4095 220.726 45.1602 222.257 43.3663C223.86 41.4511 226.026 40.4935 228.752 40.4935C231.429 40.4935 233.456 41.4511 234.832 43.3663C235.922 44.8877 236.47 46.7693 236.47 49.0037ZM232.534 47.9714C232.561 46.7917 232.292 45.7725 231.733 44.9119C231.019 43.805 229.921 43.2525 228.444 43.2525C227.095 43.2525 225.997 43.7919 225.159 44.8746C224.472 45.7351 224.063 46.7674 223.937 47.9695H232.534V47.9714Z" fill="white"/>
<path d="M87.8513 24.7674C87.0925 24.7674 86.4038 24.6448 85.785 24.3997C85.178 24.1429 84.6643 23.7926 84.2441 23.349C83.8238 22.9054 83.5086 22.3976 83.2985 21.8256L84.5943 21.1601C84.8511 21.8022 85.248 22.3275 85.785 22.7361C86.3337 23.1447 87.0342 23.349 87.8864 23.349C88.3884 23.349 88.8495 23.2673 89.2697 23.1039C89.69 22.9288 90.0286 22.6661 90.2854 22.3159C90.5539 21.9656 90.6881 21.5337 90.6881 21.02C90.6881 20.3429 90.4488 19.7768 89.9702 19.3215C89.4916 18.8545 88.8261 18.621 87.9739 18.621H86.3629V17.2201H87.9739C88.7211 17.2201 89.2931 17.0275 89.69 16.6423C90.0869 16.2453 90.2854 15.7434 90.2854 15.1363C90.2854 14.4709 90.0577 13.9631 89.6025 13.6128C89.1588 13.2626 88.5401 13.0875 87.7463 13.0875C87.0692 13.0875 86.468 13.2218 85.9426 13.4903C85.4173 13.7588 85.0029 14.144 84.6993 14.646L83.5436 13.9981C83.8121 13.5194 84.1448 13.1109 84.5417 12.7723C84.9387 12.4221 85.4056 12.1536 85.9426 11.9668C86.4796 11.7683 87.0809 11.6691 87.7463 11.6691C88.5985 11.6691 89.3223 11.815 89.9177 12.1069C90.5247 12.3871 90.9858 12.784 91.301 13.2976C91.6279 13.8113 91.7913 14.4008 91.7913 15.0663C91.7913 15.685 91.6337 16.2337 91.3185 16.7123C91.015 17.1793 90.5422 17.547 89.9001 17.8155V17.8856C90.6356 18.1774 91.2018 18.5918 91.5987 19.1288C91.9956 19.6659 92.1941 20.3021 92.1941 21.0376C92.1941 21.7497 92.0132 22.3859 91.6513 22.9463C91.301 23.5066 90.7991 23.9502 90.1453 24.2771C89.5032 24.604 88.7386 24.7674 87.8513 24.7674ZM96.9569 24.7674C96.2914 24.7674 95.7077 24.639 95.2057 24.3822C94.7038 24.1253 94.3068 23.7751 94.015 23.3315C93.7348 22.8762 93.5947 22.3626 93.5947 21.7905C93.5947 21.1368 93.764 20.5881 94.1025 20.1445C94.4411 19.6892 94.8964 19.3507 95.4684 19.1288C96.0404 18.8954 96.6708 18.7786 97.3596 18.7786C97.7565 18.7786 98.1243 18.8136 98.4628 18.8837C98.8014 18.9421 99.0932 19.0179 99.3384 19.1113C99.5952 19.1931 99.7878 19.2748 99.9162 19.3565V18.8136C99.9162 18.1365 99.6769 17.5995 99.1983 17.2026C98.7196 16.8057 98.1359 16.6072 97.4472 16.6072C96.9569 16.6072 96.4957 16.7181 96.0638 16.94C95.6435 17.1501 95.3108 17.4478 95.0657 17.833L93.9449 16.9925C94.1784 16.6423 94.4703 16.3387 94.8205 16.0819C95.1707 15.8251 95.5676 15.6266 96.0113 15.4865C96.4665 15.3464 96.9452 15.2764 97.4472 15.2764C98.6613 15.2764 99.6127 15.5974 100.301 16.2395C100.99 16.8816 101.335 17.7455 101.335 18.8312V24.4872H99.9162V23.2089H99.8462C99.6944 23.4658 99.4785 23.7168 99.1983 23.9619C98.9181 24.1954 98.5854 24.388 98.2001 24.5398C97.8266 24.6915 97.4121 24.7674 96.9569 24.7674ZM97.0969 23.4541C97.6106 23.4541 98.0776 23.3257 98.4978 23.0688C98.9298 22.812 99.2742 22.4676 99.531 22.0357C99.7878 21.6037 99.9162 21.1309 99.9162 20.6173C99.6477 20.4305 99.3092 20.2787 98.9006 20.162C98.5037 20.0453 98.0659 19.9869 97.5873 19.9869C96.735 19.9869 96.1105 20.162 95.7136 20.5122C95.3166 20.8624 95.1182 21.2944 95.1182 21.808C95.1182 22.2984 95.305 22.6953 95.6785 22.9988C96.0521 23.3023 96.5249 23.4541 97.0969 23.4541ZM103.37 24.4872V15.5566H108.974V16.9049H104.859V24.4872H103.37ZM110.501 28.2696V15.5566H111.92V16.8874H111.99C112.153 16.6072 112.381 16.3446 112.673 16.0994C112.976 15.8543 113.326 15.6558 113.723 15.504C114.12 15.3523 114.558 15.2764 115.037 15.2764C115.854 15.2764 116.583 15.4807 117.226 15.8893C117.868 16.2979 118.375 16.8582 118.749 17.5704C119.123 18.2825 119.309 19.0997 119.309 20.0219C119.309 20.9442 119.123 21.7613 118.749 22.4735C118.375 23.1856 117.868 23.7459 117.226 24.1545C116.583 24.5631 115.854 24.7674 115.037 24.7674C114.325 24.7674 113.7 24.604 113.163 24.2771C112.626 23.9502 112.235 23.5825 111.99 23.1739H111.92L111.99 24.3997V28.2696H110.501ZM114.879 23.4191C115.393 23.4191 115.871 23.2848 116.315 23.0163C116.77 22.7361 117.132 22.3392 117.401 21.8256C117.681 21.3119 117.821 20.7107 117.821 20.0219C117.821 19.3215 117.681 18.7203 117.401 18.2183C117.132 17.7046 116.77 17.3135 116.315 17.045C115.871 16.7648 115.393 16.6248 114.879 16.6248C114.365 16.6248 113.881 16.7648 113.426 17.045C112.982 17.3135 112.62 17.7046 112.34 18.2183C112.06 18.7203 111.92 19.3215 111.92 20.0219C111.92 20.7224 112.06 21.3294 112.34 21.8431C112.62 22.3451 112.982 22.7361 113.426 23.0163C113.881 23.2848 114.365 23.4191 114.879 23.4191ZM123.264 27.8144C123.229 27.8961 123.188 27.9836 123.142 28.077C123.095 28.1821 123.066 28.2463 123.054 28.2696H121.513C121.583 28.1179 121.659 27.9486 121.741 27.7618C121.822 27.5867 121.922 27.3707 122.038 27.1139C122.108 26.9621 122.173 26.8221 122.231 26.6936C122.289 26.5652 122.354 26.4193 122.424 26.2559C122.505 26.1041 122.599 25.9115 122.704 25.678L123.93 23.0163L124.262 22.1933L126.959 15.5566H128.57L123.947 26.2208C123.9 26.3259 123.825 26.4893 123.719 26.7112C123.626 26.9446 123.533 27.1664 123.439 27.3766C123.358 27.5984 123.299 27.7443 123.264 27.8144ZM123.597 24.1195L119.814 15.5566H121.425L124.227 22.1933H124.367L123.597 24.1195ZM132.809 24.7674C132.365 24.7674 131.91 24.7091 131.443 24.5923C130.987 24.4872 130.544 24.3121 130.112 24.067C129.692 23.8218 129.318 23.4949 128.991 23.0864L130.147 22.2108C130.532 22.6544 130.952 22.9755 131.408 23.1739C131.863 23.3607 132.33 23.4541 132.809 23.4541C133.474 23.4541 133.976 23.314 134.314 23.0338C134.653 22.742 134.822 22.3917 134.822 21.9832C134.822 21.5979 134.653 21.2885 134.314 21.0551C133.988 20.8099 133.55 20.6873 133.001 20.6873H131.548V19.339H133.001C133.468 19.339 133.842 19.2222 134.122 18.9888C134.402 18.7553 134.542 18.4459 134.542 18.0607C134.542 17.6171 134.361 17.2668 133.999 17.01C133.649 16.7415 133.205 16.6072 132.668 16.6072C132.19 16.6072 131.729 16.7123 131.285 16.9224C130.841 17.1209 130.48 17.3894 130.199 17.728L129.096 16.8874C129.365 16.5605 129.686 16.2804 130.059 16.0469C130.433 15.8017 130.841 15.6149 131.285 15.4865C131.74 15.3464 132.213 15.2764 132.703 15.2764C133.346 15.2764 133.912 15.3873 134.402 15.6091C134.904 15.8309 135.301 16.1344 135.593 16.5197C135.885 16.9049 136.031 17.3544 136.031 17.868C136.031 18.335 135.914 18.7494 135.68 19.1113C135.447 19.4732 135.138 19.7359 134.752 19.8993V19.9694C135.231 20.1445 135.61 20.4305 135.89 20.8274C136.182 21.2127 136.328 21.6621 136.328 22.1758C136.328 22.6778 136.182 23.1272 135.89 23.5241C135.599 23.9094 135.19 24.2129 134.665 24.4347C134.139 24.6565 133.521 24.7674 132.809 24.7674ZM138.033 24.4872V15.5566H139.522V20.6698L139.452 22.3509H139.522L144.425 15.5566H145.913V24.4872H144.425V19.374L144.495 17.6929H144.425L139.522 24.4872H138.033ZM150.435 24.4872V16.2045H151.906V24.4872H150.435ZM147.441 16.9049V15.5566H154.918V16.9049H147.441ZM157.922 15.5566V23.1389H160.041C160.508 23.1389 160.899 22.993 161.214 22.7011C161.529 22.3976 161.687 22.0299 161.687 21.5979C161.687 21.1543 161.529 20.7866 161.214 20.4947C160.899 20.1912 160.508 20.0394 160.041 20.0394H157.222V18.6911H160.076C160.671 18.6911 161.203 18.8195 161.67 19.0763C162.137 19.3215 162.504 19.6659 162.773 20.1095C163.041 20.5414 163.176 21.0376 163.176 21.5979C163.176 22.1466 163.041 22.6427 162.773 23.0864C162.504 23.5183 162.137 23.8627 161.67 24.1195C161.203 24.3647 160.671 24.4872 160.076 24.4872H156.434V15.5566H157.922ZM168.78 24.4872V15.5566H172.896C173.398 15.5566 173.847 15.6616 174.244 15.8718C174.653 16.0702 174.974 16.3504 175.207 16.7123C175.441 17.0625 175.557 17.4595 175.557 17.9031C175.557 18.3584 175.452 18.7611 175.242 19.1113C175.032 19.4499 174.763 19.7009 174.437 19.8643V19.9344C174.868 20.0978 175.213 20.3488 175.47 20.6873C175.738 21.0259 175.872 21.4286 175.872 21.8956C175.872 22.4093 175.744 22.8645 175.487 23.2615C175.242 23.6467 174.909 23.9502 174.489 24.172C174.08 24.3822 173.631 24.4872 173.141 24.4872H168.78ZM170.269 16.9049V23.1389H173.018C173.392 23.1389 173.707 23.0163 173.964 22.7712C174.232 22.526 174.367 22.2108 174.367 21.8256C174.367 21.452 174.232 21.1426 173.964 20.8975C173.707 20.6523 173.392 20.5297 173.018 20.5297H169.568V19.3215H172.826C173.187 19.3215 173.485 19.2106 173.719 18.9888C173.964 18.7553 174.086 18.4634 174.086 18.1132C174.086 17.763 173.964 17.477 173.719 17.2552C173.473 17.0217 173.17 16.9049 172.808 16.9049H170.269Z" fill="white"/>
</svg>
