<svg width="262" height="75" viewBox="0 0 262 75" fill="none" xmlns="http://www.w3.org/2000/svg">
<path d="M251.654 74.6667H9.67901C4.35798 74.6667 0 70.4643 0 65.3333V9.33334C0 4.20234 4.35798 5.8387e-06 9.67901 5.8387e-06H251.654C256.975 5.8387e-06 261.333 4.20234 261.333 9.33334V65.3333C261.333 70.4643 256.975 74.6667 251.654 74.6667Z" fill="black"/>
<path d="M251.654 1.49567C256.136 1.49567 259.782 5.01201 259.782 9.33334V65.3333C259.782 69.6547 256.136 73.171 251.654 73.171H9.67901C5.19763 73.171 1.55106 69.6547 1.55106 65.3333V9.33334C1.55106 5.01201 5.19763 1.49567 9.67901 1.49567H251.654ZM251.654 5.8387e-06H9.67901C4.35798 5.8387e-06 0 4.20234 0 9.33334V65.3333C0 70.4643 4.35798 74.6667 9.67901 74.6667H251.654C256.975 74.6667 261.333 70.4643 261.333 65.3333V9.33334C261.333 4.20234 256.975 5.8387e-06 251.654 5.8387e-06Z" fill="#A6A6A6"/>
<path d="M131.896 40.6047C127.349 40.6047 123.635 43.9414 123.635 48.545C123.635 53.1114 127.349 56.483 131.896 56.483C136.452 56.483 140.167 53.1114 140.167 48.545C140.167 43.9414 136.452 40.6047 131.896 40.6047ZM131.896 53.3564C129.401 53.3564 127.255 51.3707 127.255 48.545C127.255 45.682 129.401 43.7314 131.896 43.7314C134.391 43.7314 136.547 45.682 136.547 48.545C136.547 51.3707 134.391 53.3564 131.896 53.3564ZM113.871 40.6047C109.315 40.6047 105.61 43.9414 105.61 48.545C105.61 53.1114 109.315 56.483 113.871 56.483C118.425 56.483 122.132 53.1114 122.132 48.545C122.132 43.9414 118.425 40.6047 113.871 40.6047ZM113.871 53.3564C111.374 53.3564 109.22 51.3707 109.22 48.545C109.22 45.682 111.374 43.7314 113.871 43.7314C116.366 43.7314 118.512 45.682 118.512 48.545C118.512 51.3707 116.366 53.3564 113.871 53.3564ZM92.4224 43.0384V46.4124H100.778C100.533 48.2977 99.8801 49.6837 98.8783 50.6497C97.6588 51.8164 95.7593 53.1114 92.4224 53.1114C87.2805 53.1114 83.254 49.1097 83.254 44.1514C83.254 39.193 87.2805 35.1914 92.4224 35.1914C95.2027 35.1914 97.2257 36.239 98.7186 37.597L101.184 35.2194C99.0961 33.2967 96.3182 31.8197 92.4224 31.8197C85.3713 31.8197 79.4453 37.352 79.4453 44.1514C79.4453 50.9507 85.3713 56.483 92.4224 56.483C96.2336 56.483 99.0961 55.279 101.346 53.0204C103.653 50.7967 104.371 47.67 104.371 45.1454C104.371 44.3614 104.303 43.6404 104.182 43.0384H92.4224ZM180.129 45.654C179.449 43.8784 177.351 40.6047 173.078 40.6047C168.843 40.6047 165.317 43.8224 165.317 48.545C165.317 52.9924 168.807 56.483 173.484 56.483C177.266 56.483 179.449 54.2594 180.347 52.9644L177.54 51.1607C176.603 52.4814 175.328 53.3564 173.484 53.3564C171.652 53.3564 170.338 52.5467 169.496 50.9507L180.509 46.557L180.129 45.654ZM168.901 48.2977C168.807 45.2364 171.367 43.6684 173.201 43.6684C174.638 43.6684 175.858 44.3614 176.264 45.353L168.901 48.2977ZM159.95 56H163.57V32.6667H159.95V56ZM154.022 42.3734H153.901C153.088 41.4447 151.537 40.6047 149.572 40.6047C145.449 40.6047 141.679 44.0954 141.679 48.5707C141.679 53.0204 145.449 56.483 149.572 56.483C151.537 56.483 153.088 55.636 153.901 54.6794H154.022V55.818C154.022 58.8537 152.34 60.4847 149.628 60.4847C147.416 60.4847 146.044 58.9447 145.478 57.6497L142.33 58.9167C143.237 61.0214 145.64 63.6114 149.628 63.6114C153.872 63.6114 157.453 61.2034 157.453 55.3444V41.0877H154.022V42.3734ZM149.882 53.3564C147.387 53.3564 145.299 51.3427 145.299 48.5707C145.299 45.773 147.387 43.7314 149.882 43.7314C152.34 43.7314 154.279 45.773 154.279 48.5707C154.279 51.3427 152.34 53.3564 149.882 53.3564ZM197.077 32.6667H188.419V56H192.029V47.159H197.077C201.086 47.159 205.018 44.3614 205.018 39.9117C205.018 35.4644 201.077 32.6667 197.077 32.6667ZM197.171 43.9134H192.029V35.9124H197.171C199.867 35.9124 201.406 38.0707 201.406 39.9117C201.406 41.7177 199.867 43.9134 197.171 43.9134ZM219.488 40.5604C216.88 40.5604 214.167 41.671 213.052 44.1327L216.256 45.4277C216.945 44.1327 218.213 43.7127 219.554 43.7127C221.427 43.7127 223.326 44.7977 223.355 46.7134V46.9584C222.702 46.5944 221.303 46.0554 219.583 46.0554C216.132 46.0554 212.616 47.887 212.616 51.3054C212.616 54.432 215.443 56.4457 218.62 56.4457C221.049 56.4457 222.39 55.3887 223.232 54.159H223.355V55.9627H226.842V47.012C226.842 42.875 223.638 40.5604 219.488 40.5604ZM219.053 53.347C217.872 53.347 216.227 52.7824 216.227 51.3707C216.227 49.5647 218.279 48.8717 220.055 48.8717C221.644 48.8717 222.39 49.21 223.355 49.6557C223.072 51.8164 221.144 53.347 219.053 53.347ZM239.546 41.0714L235.396 51.1864H235.273L230.982 41.0714H227.089L233.535 55.2067L229.857 63.0724H233.63L243.563 41.0714H239.546ZM207.003 56H210.623V32.6667H207.003V56Z" fill="white"/>
<path d="M20.2002 14.0723C19.6316 14.6463 19.3025 15.54 19.3025 16.6973V57.9787C19.3025 59.136 19.6316 60.0297 20.2002 60.6037L20.3406 60.7297L44.33 37.6063V37.0603L20.3406 13.937L20.2002 14.0723Z" fill="url(#paint0_linear_132_14718)"/>
<path d="M52.3174 45.3179L44.3298 37.6062V37.0602L52.3271 29.3486L52.5062 29.4489L61.9771 34.6452C64.68 36.1199 64.68 38.5466 61.9771 40.0306L52.5062 45.2176L52.3174 45.3179Z" fill="url(#paint1_linear_132_14718)"/>
<path d="M52.5061 45.2176L44.3297 37.3333L20.2 60.6036C21.0977 61.5136 22.5616 61.6233 24.2264 60.7133L52.5061 45.2176Z" fill="url(#paint2_linear_132_14718)"/>
<path d="M52.5061 29.449L24.2264 13.9533C22.5616 13.0526 21.0977 13.1623 20.2 14.0723L44.3297 37.3333L52.5061 29.449Z" fill="url(#paint3_linear_132_14718)"/>
<path d="M80.5223 26.115V22.0349H81.5729C81.8064 21.7314 82.0049 21.3286 82.1683 20.8266C82.3318 20.3246 82.4602 19.7584 82.5536 19.128C82.6586 18.4976 82.7345 17.8381 82.7812 17.1493C82.8279 16.4488 82.8512 15.7542 82.8512 15.0655V10.9153H90.4686V22.0349H92.0096V26.115H90.5211V23.4533H82.0107V26.115H80.5223ZM83.289 22.0349H88.9801V12.3337H84.3397V15.2581C84.3397 16.2154 84.293 17.1084 84.1996 17.9373C84.1179 18.7661 83.9953 19.5191 83.8319 20.1962C83.6801 20.8733 83.4992 21.4629 83.289 21.9648V22.0349ZM97.6633 23.7335C96.7644 23.7335 95.9706 23.5233 95.2818 23.1031C94.593 22.6828 94.0502 22.1166 93.6533 21.4045C93.268 20.6807 93.0754 19.8752 93.0754 18.988C93.0754 18.1007 93.268 17.3011 93.6533 16.5889C94.0502 15.8651 94.593 15.2931 95.2818 14.8728C95.9706 14.4526 96.7644 14.2424 97.6633 14.2424C98.5622 14.2424 99.3561 14.4584 100.045 14.8904C100.734 15.3106 101.271 15.8827 101.656 16.6064C102.053 17.3186 102.251 18.1124 102.251 18.988C102.251 19.8752 102.053 20.6807 101.656 21.4045C101.271 22.1166 100.734 22.6828 100.045 23.1031C99.3561 23.5233 98.5622 23.7335 97.6633 23.7335ZM97.6633 22.3851C98.2003 22.3851 98.7023 22.2509 99.1693 21.9824C99.6479 21.7139 100.033 21.3286 100.325 20.8266C100.617 20.313 100.763 19.7001 100.763 18.988C100.763 18.2758 100.617 17.6688 100.325 17.1668C100.033 16.6531 99.6479 16.2621 99.1693 15.9936C98.7023 15.7251 98.2003 15.5908 97.6633 15.5908C97.1263 15.5908 96.6185 15.7251 96.1399 15.9936C95.6612 16.2621 95.276 16.6531 94.9841 17.1668C94.6923 17.6688 94.5463 18.2758 94.5463 18.988C94.5463 19.7001 94.6923 20.313 94.9841 20.8266C95.276 21.3286 95.6612 21.7139 96.1399 21.9824C96.6185 22.2509 97.1263 22.3851 97.6633 22.3851ZM107.99 23.7335C107.115 23.7335 106.333 23.5292 105.644 23.1206C104.967 22.7003 104.436 22.1341 104.05 21.422C103.665 20.6982 103.473 19.8869 103.473 18.988C103.473 18.0774 103.665 17.266 104.05 16.5539C104.436 15.8418 104.967 15.2814 105.644 14.8728C106.333 14.4526 107.115 14.2424 107.99 14.2424C108.994 14.2424 109.817 14.4759 110.46 14.9429C111.113 15.3982 111.574 15.9877 111.843 16.7115L110.495 17.2719C110.273 16.7232 109.94 16.3088 109.496 16.0286C109.065 15.7367 108.539 15.5908 107.92 15.5908C107.395 15.5908 106.905 15.7309 106.45 16.0111C106.006 16.2912 105.644 16.6882 105.364 17.2018C105.084 17.7038 104.944 18.2992 104.944 18.988C104.944 19.6651 105.084 20.2604 105.364 20.7741C105.644 21.2877 106.006 21.6847 106.45 21.9648C106.905 22.245 107.395 22.3851 107.92 22.3851C108.551 22.3851 109.094 22.2392 109.549 21.9473C110.004 21.6555 110.343 21.2411 110.565 20.704L111.895 21.2644C111.604 21.9532 111.131 22.5369 110.477 23.0155C109.823 23.4941 108.994 23.7335 107.99 23.7335ZM115.749 23.4533V15.1705H117.22V23.4533H115.749ZM112.754 15.871V14.5226H120.231V15.871H112.754ZM124.181 26.7804C124.146 26.8621 124.105 26.9497 124.059 27.0431C124.012 27.1481 123.983 27.2123 123.971 27.2357H122.43C122.5 27.0839 122.576 26.9147 122.658 26.7279C122.74 26.5528 122.839 26.3368 122.956 26.08C123.026 25.9282 123.09 25.7881 123.148 25.6597C123.207 25.5313 123.271 25.3853 123.341 25.2219C123.422 25.0701 123.516 24.8775 123.621 24.644L124.847 21.9824L125.179 21.1593L127.876 14.5226H129.487L124.864 25.1869C124.818 25.292 124.742 25.4554 124.637 25.6772C124.543 25.9107 124.45 26.1325 124.356 26.3426C124.275 26.5644 124.216 26.7104 124.181 26.7804ZM124.514 23.0856L120.732 14.5226H122.343L125.144 21.1593H125.284L124.514 23.0856ZM130.64 23.4533V14.5226H138.169V23.4533H136.681V15.871H132.128V23.4533H130.64ZM140.336 23.4533V14.5226H141.824V23.4533H140.336ZM141.124 19.6184V18.27H147.253V19.6184H141.124ZM146.552 23.4533V14.5226H148.041V23.4533H146.552ZM154.335 23.7335C153.436 23.7335 152.642 23.5233 151.954 23.1031C151.265 22.6828 150.722 22.1166 150.325 21.4045C149.94 20.6807 149.747 19.8752 149.747 18.988C149.747 18.1007 149.94 17.3011 150.325 16.5889C150.722 15.8651 151.265 15.2931 151.954 14.8728C152.642 14.4526 153.436 14.2424 154.335 14.2424C155.234 14.2424 156.028 14.4584 156.717 14.8904C157.405 15.3106 157.942 15.8827 158.328 16.6064C158.724 17.3186 158.923 18.1124 158.923 18.988C158.923 19.8752 158.724 20.6807 158.328 21.4045C157.942 22.1166 157.405 22.6828 156.717 23.1031C156.028 23.5233 155.234 23.7335 154.335 23.7335ZM154.335 22.3851C154.872 22.3851 155.374 22.2509 155.841 21.9824C156.32 21.7139 156.705 21.3286 156.997 20.8266C157.289 20.313 157.434 19.7001 157.434 18.988C157.434 18.2758 157.289 17.6688 156.997 17.1668C156.705 16.6531 156.32 16.2621 155.841 15.9936C155.374 15.7251 154.872 15.5908 154.335 15.5908C153.798 15.5908 153.29 15.7251 152.812 15.9936C152.333 16.2621 151.948 16.6531 151.656 17.1668C151.364 17.6688 151.218 18.2758 151.218 18.988C151.218 19.7001 151.364 20.313 151.656 20.8266C151.948 21.3286 152.333 21.7139 152.812 21.9824C153.29 22.2509 153.798 22.3851 154.335 22.3851ZM164.687 23.4533V14.5226H168.802C169.304 14.5226 169.754 14.6277 170.151 14.8378C170.559 15.0363 170.88 15.3165 171.114 15.6784C171.347 16.0286 171.464 16.4255 171.464 16.8691C171.464 17.3244 171.359 17.7272 171.149 18.0774C170.939 18.4159 170.67 18.6669 170.343 18.8304V18.9004C170.775 19.0638 171.12 19.3148 171.376 19.6534C171.645 19.9919 171.779 20.3947 171.779 20.8616C171.779 21.3753 171.651 21.8306 171.394 22.2275C171.149 22.6128 170.816 22.9163 170.396 23.1381C169.987 23.3482 169.538 23.4533 169.047 23.4533H164.687ZM166.176 15.871V22.1049H168.925C169.298 22.1049 169.614 21.9824 169.87 21.7372C170.139 21.492 170.273 21.1768 170.273 20.7916C170.273 20.418 170.139 20.1087 169.87 19.8635C169.614 19.6184 169.298 19.4958 168.925 19.4958H165.475V18.2875H168.732C169.094 18.2875 169.392 18.1766 169.625 17.9548C169.87 17.7213 169.993 17.4295 169.993 17.0792C169.993 16.729 169.87 16.443 169.625 16.2212C169.38 15.9877 169.077 15.871 168.715 15.871H166.176Z" fill="white"/>
<defs>
<linearGradient id="paint0_linear_132_14718" x1="42.2" y1="58.4085" x2="10.8936" y2="25.9426" gradientUnits="userSpaceOnUse">
<stop stop-color="#00A0FF"/>
<stop offset="0.0066" stop-color="#00A1FF"/>
<stop offset="0.2601" stop-color="#00BEFF"/>
<stop offset="0.5122" stop-color="#00D2FF"/>
<stop offset="0.7604" stop-color="#00DFFF"/>
<stop offset="1" stop-color="#00E3FF"/>
</linearGradient>
<linearGradient id="paint1_linear_132_14718" x1="65.4967" y1="37.3306" x2="18.6563" y2="37.3306" gradientUnits="userSpaceOnUse">
<stop stop-color="#FFE000"/>
<stop offset="0.4087" stop-color="#FFBD00"/>
<stop offset="0.7754" stop-color="#FFA500"/>
<stop offset="1" stop-color="#FF9C00"/>
</linearGradient>
<linearGradient id="paint2_linear_132_14718" x1="48.06" y1="33.0472" x2="5.60593" y2="-10.9792" gradientUnits="userSpaceOnUse">
<stop stop-color="#FF3A44"/>
<stop offset="1" stop-color="#C31162"/>
</linearGradient>
<linearGradient id="paint3_linear_132_14718" x1="14.126" y1="74.3377" x2="33.0836" y2="54.6781" gradientUnits="userSpaceOnUse">
<stop stop-color="#32A071"/>
<stop offset="0.0685" stop-color="#2DA771"/>
<stop offset="0.4762" stop-color="#15CF74"/>
<stop offset="0.8009" stop-color="#06E775"/>
<stop offset="1" stop-color="#00F076"/>
</linearGradient>
</defs>
</svg>
