<svg width="159" height="64" viewBox="0 0 159 64" fill="none" xmlns="http://www.w3.org/2000/svg">
<g clip-path="url(#clip0_287_2)">
<mask id="mask0_287_2" style="mask-type:luminance" maskUnits="userSpaceOnUse" x="0" y="0" width="159" height="64">
<path d="M158.667 0H0V64H158.667V0Z" fill="white"/>
</mask>
<g mask="url(#mask0_287_2)">
<path fill-rule="evenodd" clip-rule="evenodd" d="M158.267 53.8566L141.603 45.1108L147.137 54.2793L142.291 63.8378L158.267 53.8566Z" fill="#FFED00"/>
<path fill-rule="evenodd" clip-rule="evenodd" d="M68.6304 0.162369C64.8085 0.162369 61.7061 3.31604 61.7061 7.20125C61.7061 11.184 65.8401 14.4026 68.6304 17.7677C71.3011 14.5408 75.563 11.1921 75.563 7.20125C75.563 3.31604 72.4605 0.162369 68.6304 0.162369ZM68.6389 9.97291C67.1354 9.97291 65.9123 8.72927 65.9123 7.20125C65.9123 5.67316 67.1354 4.42958 68.6389 4.42958C70.1417 4.42958 71.3655 5.67316 71.3655 7.20125C71.3655 8.72927 70.1417 9.97291 68.6389 9.97291Z" fill="#0000B8"/>
<path fill-rule="evenodd" clip-rule="evenodd" d="M13.2977 11.8183H0.400024L4.09422 16.3375L0.400024 20.8648H13.2977V11.8183Z" fill="#43B500"/>
<path d="M129.121 11.7371C122.764 11.7371 117.606 15.7117 117.606 20.6211C117.606 22.9619 118.782 25.0914 120.701 26.6764C120.781 28.2207 118.678 30.4234 118.678 30.4234C121.229 30.651 124.107 29.1311 124.572 28.8059L124.579 28.7816C124.587 28.7816 124.587 28.7816 124.596 28.7897C124.579 28.7978 124.572 28.8059 124.572 28.8059C124.579 28.7978 124.587 28.7978 124.596 28.7897C125.987 29.2448 127.514 29.505 129.121 29.505C135.478 29.505 140.635 25.5304 140.635 20.6211C140.635 15.7117 135.486 11.7371 129.121 11.7371Z" fill="#CD0078"/>
<path d="M56.1888 45.183C48.4646 45.183 44.5145 49.1901 44.5145 54.1076C44.5145 59.025 48.4566 63.0321 56.1888 63.0321C63.8811 63.0321 67.8313 59.025 67.8313 54.1076C67.8313 49.1901 63.8811 45.183 56.1888 45.183ZM62.6897 57.8871C59.0754 59.9191 53.2143 59.9191 49.6001 57.8871C45.2502 55.4405 45.2502 52.9615 49.6001 50.5231C53.2143 48.4911 59.0754 48.4911 62.6897 50.5231C67.0315 52.9615 67.0315 55.4405 62.6897 57.8871Z" fill="black"/>
<path d="M56.1332 58.0018C58.1962 58.0018 59.8754 56.303 59.8754 54.1978C59.8754 52.1089 58.2042 50.4021 56.1332 50.4021C54.0782 50.4021 52.399 52.1008 52.399 54.1978C52.407 56.2949 54.0782 58.0018 56.1332 58.0018Z" fill="#0000B8"/>
<path d="M70.2463 38.0303L67.9912 32.991L65.7367 38.0303L58.2921 40.1599L65.4649 42.2081L67.9912 47.6214L70.5182 42.2081L77.6907 40.1599L70.2463 38.0303Z" fill="#FF4E00"/>
<path d="M37.7818 23.2866C41.428 23.5873 43.403 25.725 43.403 28.903C43.403 32.7475 40.9722 35.2185 34.8872 35.2185H17.2958V11.826H34.9831C40.2446 11.826 42.5794 14.1669 42.5794 17.5075C42.5794 20.3442 40.8043 22.3193 37.7818 22.6526V23.2866ZM22.981 16.4021V21.3114H33.6957C35.7348 21.3114 36.7183 20.3117 36.7183 18.873C36.7183 17.4019 35.7348 16.4021 33.6957 16.4021H22.981ZM34.2635 30.6424C36.5344 30.6424 37.5499 29.6102 37.5499 28.0333C37.5499 26.4321 36.5344 25.3917 34.2635 25.3917H22.989V30.6424H34.2635Z" fill="black"/>
<path d="M67.8872 28.2687H50.0721C50.7279 30.4064 52.8628 31.8451 56.581 31.8451C60.4271 31.8451 61.8744 30.5771 62.634 29.7074H67.6317C66.7759 32.1458 63.7535 35.6571 56.4851 35.6571C49.0247 35.6571 45.0746 31.65 45.0746 26.7325C45.0746 21.8151 49.0167 17.808 56.549 17.808C64.0414 17.808 67.9913 21.8151 67.9913 26.7976C67.9835 27.3015 67.9516 27.7648 67.8872 28.2687ZM50.0402 25.2939H63.0258C62.4022 23.1237 60.2992 21.6525 56.549 21.6525C52.7989 21.6525 50.6639 23.1237 50.0402 25.2939Z" fill="black"/>
<path d="M92.1951 28.2687H74.3802C75.0357 30.4064 77.1705 31.8451 80.8888 31.8451C84.7352 31.8451 86.182 30.5771 86.9415 29.7074H91.9395C91.0838 32.1458 88.0613 35.6571 80.7926 35.6571C73.3326 35.6571 69.3822 31.65 69.3822 26.7325C69.3822 21.8151 73.3242 17.808 80.8569 17.808C88.3494 17.808 92.2991 21.8151 92.2991 26.7976C92.2991 27.3015 92.2673 27.7648 92.1951 28.2687ZM74.3477 25.2939H87.3336C86.71 23.1237 84.6071 21.6525 80.8569 21.6525C77.1068 21.6525 74.972 23.1237 74.3477 25.2939Z" fill="black"/>
<path d="M94.7135 29.0408C94.7135 25.7002 97.1124 23.4894 99.7434 23.0261V22.4896H92.7705V18.6776H97.1124C98.4637 18.6776 98.9832 18.1412 98.9832 16.7757V14.2397H103.222V18.515H112.689V22.4896H102.334C100.758 23.2618 99.7031 24.5623 99.7031 26.9681C99.7031 29.7398 101.182 31.2435 104.269 31.2435C107.491 31.2435 108.906 29.8049 108.906 27.7322V27.3339H114.072V27.8379C114.072 32.5521 111.05 35.657 104.277 35.657C97.5682 35.657 94.7135 32.7472 94.7135 29.0408Z" fill="black"/>
<path d="M43.0748 62.5934H36.1022L33.6074 56.5787C32.9197 54.9775 31.9602 54.4735 29.7293 54.4735H23.1565V62.5934H17.3033V39.201H32.5279C38.8368 39.201 41.8993 42.3059 41.8993 46.5569C41.8993 50.3689 39.3006 53.2056 35.9822 53.4738V54.0428C38.349 54.1403 39.5965 54.9775 40.8838 57.7816L43.0748 62.5934ZM31.9602 50.7347C34.6868 50.7347 36.0382 49.3285 36.0382 47.2965C36.0382 45.2645 34.6868 43.8909 31.9602 43.8909H22.8526V50.7428H31.9602V50.7347Z" fill="black"/>
<path d="M70.5494 53.8073V45.6224H75.7471V52.6044C75.7471 56.4814 77.8501 58.6191 81.3362 58.6191C84.8548 58.6191 86.9578 56.4814 86.9578 52.6044V45.6224H92.1229V62.6018H86.9578L87.7173 57.5218H87.1893C86.2379 61.0332 83.6069 63.0326 79.401 63.0326C73.94 63.0326 70.5494 59.5864 70.5494 53.8073Z" fill="black"/>
<path d="M96.6084 56.4158C96.6084 53.0752 99.0073 50.8643 101.638 50.401V49.8646H94.6654V46.0526H99.0073C100.359 46.0526 100.879 45.5161 100.879 44.1506V41.6147H105.117V45.89H114.584V49.8646H104.229C102.653 50.6368 101.598 51.9372 101.598 54.3432C101.598 57.1148 103.077 58.6185 106.164 58.6185C109.386 58.6185 110.802 57.1798 110.802 55.1072V54.7089H115.967V55.2129C115.967 59.9271 112.945 63.032 106.172 63.032C99.4709 63.032 96.6084 60.1222 96.6084 56.4158Z" fill="black"/>
<path d="M140.484 55.6438H122.669C123.325 57.7814 125.46 59.22 129.178 59.22C133.024 59.22 134.471 57.9521 135.231 57.0824H140.229C139.373 59.5208 136.351 63.0321 129.082 63.0321C121.622 63.0321 117.672 59.025 117.672 54.1076C117.672 49.1901 121.613 45.183 129.146 45.183C136.638 45.183 140.588 49.1901 140.588 54.1726C140.588 54.6765 140.557 55.1479 140.484 55.6438ZM122.637 52.6689H135.623C134.999 50.4987 132.896 49.0276 129.146 49.0276C125.395 49.0276 123.261 50.4987 122.637 52.6689Z" fill="black"/>
</g>
</g>
<defs>
<clipPath id="clip0_287_2">
<rect width="158.667" height="64" fill="white"/>
</clipPath>
</defs>
</svg>
