<svg width="168" height="68" viewBox="0 0 168 68" fill="none" xmlns="http://www.w3.org/2000/svg">
<g clip-path="url(#clip0_301_17110)">
<mask id="mask0_301_17110" style="mask-type:luminance" maskUnits="userSpaceOnUse" x="0" y="0" width="168" height="68">
<path d="M168 0H0V68H168V0Z" fill="white"/>
</mask>
<g mask="url(#mask0_301_17110)">
<path fill-rule="evenodd" clip-rule="evenodd" d="M167.577 57.2226L149.933 47.9302L155.792 57.6716L150.661 67.8275L167.577 57.2226Z" fill="#FFED00"/>
<path fill-rule="evenodd" clip-rule="evenodd" d="M72.6675 0.172363C68.6208 0.172363 65.3358 3.52314 65.3358 7.65118C65.3358 11.8828 69.713 15.3026 72.6675 18.878C75.4953 15.4494 80.0079 11.8914 80.0079 7.65118C80.0079 3.52314 76.7229 0.172363 72.6675 0.172363ZM72.6765 10.5961C71.0846 10.5961 69.7895 9.27469 69.7895 7.65118C69.7895 6.02758 71.0846 4.70627 72.6765 4.70627C74.2676 4.70627 75.5634 6.02758 75.5634 7.65118C75.5634 9.27469 74.2676 10.5961 72.6765 10.5961Z" fill="#0000B8"/>
<path fill-rule="evenodd" clip-rule="evenodd" d="M14.08 12.5566H0.423584L4.33509 17.3583L0.423584 22.1685H14.08V12.5566Z" fill="#43B500"/>
<path d="M136.716 12.4707C129.986 12.4707 124.524 16.6937 124.524 21.9099C124.524 24.397 125.769 26.6596 127.801 28.3437C127.886 29.9845 125.659 32.3249 125.659 32.3249C128.36 32.5667 131.408 30.9518 131.899 30.6063L131.907 30.5804C131.916 30.5804 131.916 30.5804 131.925 30.5891C131.907 30.5977 131.899 30.6063 131.899 30.6063C131.907 30.5977 131.916 30.5977 131.925 30.5891C133.397 31.0726 135.015 31.349 136.716 31.349C143.447 31.349 148.908 27.126 148.908 21.9099C148.908 16.6937 143.455 12.4707 136.716 12.4707Z" fill="#CD0078"/>
<path d="M59.4941 48.0068C51.3155 48.0068 47.1331 52.2643 47.1331 57.4892C47.1331 62.714 51.307 66.9715 59.4941 66.9715C67.6388 66.9715 71.8214 62.714 71.8214 57.4892C71.8214 52.2643 67.6388 48.0068 59.4941 48.0068ZM66.3773 61.5049C62.5505 63.6639 56.3446 63.6639 52.5177 61.5049C47.912 58.9055 47.912 56.2715 52.5177 53.6807C56.3446 51.5217 62.5505 51.5217 66.3773 53.6807C70.9745 56.2715 70.9745 58.9055 66.3773 61.5049Z" fill="white"/>
<path d="M59.4352 61.6269C61.6195 61.6269 63.3974 59.822 63.3974 57.5853C63.3974 55.3658 61.628 53.5522 59.4352 53.5522C57.2592 53.5522 55.4813 55.3572 55.4813 57.5853C55.4898 59.8134 57.2592 61.6269 59.4352 61.6269Z" fill="#0000B8"/>
<path d="M74.3785 40.407L71.9907 35.0527L69.6036 40.407L61.7211 42.6696L69.3158 44.8459L71.9907 50.5975L74.6663 44.8459L82.2607 42.6696L74.3785 40.407Z" fill="#FF4E00"/>
<path d="M40.0042 24.7418C43.8649 25.0613 45.9561 27.3326 45.9561 30.7092C45.9561 34.7941 43.3823 37.4194 36.9393 37.4194H18.3131V12.5649H37.0409C42.6118 12.5649 45.084 15.0521 45.084 18.6015C45.084 21.6155 43.2045 23.7141 40.0042 24.0682V24.7418ZM24.3327 17.427V22.6432H35.6778C37.8368 22.6432 38.8781 21.581 38.8781 20.0524C38.8781 18.4893 37.8368 17.427 35.6778 17.427H24.3327ZM36.2789 32.5574C38.6834 32.5574 39.7587 31.4606 39.7587 29.7852C39.7587 28.0839 38.6834 26.9785 36.2789 26.9785H24.3412V32.5574H36.2789Z" fill="white"/>
<path d="M71.8806 30.0355H53.0176C53.7119 32.3067 55.9724 33.8353 59.9093 33.8353C63.9817 33.8353 65.5141 32.4881 66.3184 31.5641H71.61C70.7039 34.1549 67.5037 37.8856 59.8078 37.8856C51.9085 37.8856 47.7261 33.628 47.7261 28.4033C47.7261 23.1785 51.9 18.9209 59.8754 18.9209C67.8085 18.9209 71.9908 23.1785 71.9908 28.4724C71.9825 29.0078 71.9488 29.5 71.8806 30.0355ZM52.9838 26.8747H66.7333C66.0729 24.5689 63.8462 23.0057 59.8754 23.0057C55.9047 23.0057 53.6441 24.5689 52.9838 26.8747Z" fill="white"/>
<path d="M97.6183 30.0355H78.7555C79.4495 32.3067 81.71 33.8353 85.6469 33.8353C89.7196 33.8353 91.2515 32.4881 92.0557 31.5641H97.3477C96.4416 34.1549 93.2414 37.8856 85.545 37.8856C77.6463 37.8856 73.4635 33.628 73.4635 28.4033C73.4635 23.1785 77.6373 18.9209 85.6132 18.9209C93.5464 18.9209 97.7285 23.1785 97.7285 28.4724C97.7285 29.0078 97.6948 29.5 97.6183 30.0355ZM78.7211 26.8747H92.4709C91.8106 24.5689 89.5839 23.0057 85.6132 23.0057C81.6425 23.0057 79.3821 24.5689 78.7211 26.8747Z" fill="white"/>
<path d="M100.285 30.8556C100.285 27.3062 102.825 24.9572 105.611 24.465V23.8949H98.2277V19.8447H102.825C104.256 19.8447 104.806 19.2747 104.806 17.8239V15.1294H109.294V19.6719H119.318V23.8949H108.354C106.685 24.7154 105.568 26.0972 105.568 28.6534C105.568 31.5983 107.134 33.1959 110.402 33.1959C113.814 33.1959 115.313 31.6674 115.313 29.4652V29.0421H120.782V29.5775C120.782 34.5864 117.582 37.8853 110.411 37.8853C103.308 37.8853 100.285 34.7937 100.285 30.8556Z" fill="white"/>
<path d="M45.6086 66.5053H38.2258L35.5843 60.1146C34.8562 58.4134 33.8402 57.8779 31.478 57.8779H24.5186V66.5053H18.3212V41.6509H34.4413C41.1213 41.6509 44.364 44.9498 44.364 49.4665C44.364 53.5167 41.6124 56.5307 38.0988 56.8157V57.4202C40.6049 57.5238 41.9256 58.4134 43.2887 61.3928L45.6086 66.5053ZM33.8402 53.9054C36.7272 53.9054 38.158 52.4114 38.158 50.2523C38.158 48.0934 36.7272 46.6338 33.8402 46.6338H24.1969V53.914H33.8402V53.9054Z" fill="white"/>
<path d="M74.6993 57.1701V48.4736H80.2027V55.8919C80.2027 60.0113 82.4294 62.2826 86.1206 62.2826C89.8462 62.2826 92.0729 60.0113 92.0729 55.8919V48.4736H97.5418V66.5142H92.0729L92.8771 61.1167H92.318C91.3107 64.8475 88.5249 66.9719 84.0715 66.9719C78.2893 66.9719 74.6993 63.3103 74.6993 57.1701Z" fill="white"/>
<path d="M102.291 59.9415C102.291 56.3921 104.831 54.0431 107.617 53.5508V52.9809H100.234V48.9306H104.831C106.262 48.9306 106.813 48.3606 106.813 46.9097V44.2153H111.3V48.7579H121.324V52.9809H110.36C108.692 53.8013 107.574 55.183 107.574 57.7393C107.574 60.6842 109.141 62.2819 112.409 62.2819C115.821 62.2819 117.32 60.7533 117.32 58.5511V58.1279H122.789V58.6634C122.789 63.6722 119.588 66.9712 112.417 66.9712C105.322 66.9712 102.291 63.8795 102.291 59.9415Z" fill="white"/>
<path d="M148.748 59.1214H129.885C130.579 61.3927 132.84 62.9212 136.777 62.9212C140.849 62.9212 142.381 61.574 143.186 60.6499H148.478C147.572 63.2407 144.371 66.9715 136.675 66.9715C128.776 66.9715 124.593 62.714 124.593 57.4892C124.593 52.2643 128.767 48.0068 136.743 48.0068C144.676 48.0068 148.858 52.2643 148.858 57.5582C148.858 58.0937 148.825 58.5946 148.748 59.1214ZM129.851 55.9606H143.601C142.941 53.6548 140.714 52.0917 136.743 52.0917C132.772 52.0917 130.511 53.6548 129.851 55.9606Z" fill="white"/>
</g>
</g>
<defs>
<clipPath id="clip0_301_17110">
<rect width="168" height="68" fill="white"/>
</clipPath>
</defs>
</svg>
